<?xml version="1.0" standalone="no"?>
<!DOCTYPE svg PUBLIC "-//W3C//DTD SVG 20010904//EN"
 "http://www.w3.org/TR/2001/REC-SVG-20010904/DTD/svg10.dtd">
<svg version="1.0" xmlns="http://www.w3.org/2000/svg"
 width="260.000000pt" height="260.000000pt" viewBox="0 0 260.000000 260.000000"
 preserveAspectRatio="xMidYMid meet">
<metadata>
Created by potrace 1.14, written by Peter Selinger 2001-2017
</metadata>
<g transform="translate(0.000000,260.000000) scale(0.100000,-0.100000)"
fill="#000000" stroke="none">
<path d="M2559 2487 c8 -10 9 -17 3 -17 -6 0 -14 5 -17 11 -4 6 -19 1 -40 -15
-18 -14 -35 -23 -38 -20 -2 3 -7 -2 -10 -10 -3 -8 2 -20 11 -28 15 -11 16 -11
4 3 -10 14 -10 18 4 23 11 4 15 2 11 -8 -3 -7 0 -19 6 -26 8 -9 9 -11 1 -7
-14 8 -37 -17 -27 -27 4 -4 -6 -2 -22 4 l-30 10 25 -20 c20 -16 21 -19 5 -14
-11 4 -26 11 -32 17 -13 9 -14 8 -17 -12 -2 -19 -16 -23 -33 -10 -16 13 -17
12 -4 -4 8 -9 11 -21 7 -24 -4 -4 -12 -1 -17 7 -10 13 -10 13 -6 0 5 -16 -17
-43 -27 -33 -3 4 -6 1 -6 -6 0 -8 7 -11 15 -7 8 3 15 1 15 -5 0 -6 5 -7 12 -3
6 4 8 3 5 -3 -7 -11 -46 -10 -69 2 -7 3 -5 0 5 -8 9 -8 17 -19 17 -26 0 -6 5
-11 12 -11 6 0 9 -2 6 -5 -8 -9 -38 6 -32 16 3 5 -2 6 -11 3 -14 -6 -14 -8 2
-20 10 -7 14 -14 9 -14 -5 0 -2 -8 5 -17 13 -16 12 -17 -3 -4 -10 7 -16 16
-14 20 3 4 -5 7 -17 8 -12 0 -16 -1 -9 -4 6 -3 12 -9 12 -14 0 -4 -7 -5 -17
-2 -12 5 -14 3 -8 -7 6 -10 1 -12 -21 -7 -26 5 -27 4 -10 -9 10 -7 23 -11 29
-7 6 3 7 1 3 -5 -4 -7 -15 -8 -30 -2 -29 11 -40 2 -43 -33 -2 -25 0 -27 13
-16 9 7 11 15 5 18 -6 4 -6 12 -1 21 9 13 10 13 11 0 0 -8 2 -23 4 -33 2 -9
-1 -15 -5 -12 -5 3 -15 -4 -23 -15 -7 -11 -17 -17 -22 -12 -4 4 -5 -2 -1 -13
5 -14 4 -17 -4 -9 -13 13 -2 46 13 37 6 -3 7 -1 3 5 -4 6 -13 9 -21 6 -8 -4
-12 -10 -9 -15 3 -5 -3 -9 -13 -9 -11 0 -14 -3 -7 -8 13 -8 15 -44 2 -36 -5 3
-16 0 -25 -8 -9 -7 -14 -8 -10 -2 4 7 0 14 -8 17 -9 4 -12 1 -9 -8 9 -24 -6
-38 -24 -23 -9 8 -13 8 -9 2 4 -7 0 -14 -8 -18 -8 -3 -12 -12 -9 -20 6 -16
-28 -40 -41 -28 -5 4 -5 1 -1 -6 4 -7 12 -10 17 -7 5 4 17 1 26 -5 15 -9 14
-10 -6 -4 -17 4 -21 3 -16 -6 6 -9 3 -9 -13 -1 -15 8 -23 6 -37 -9 -10 -11
-22 -17 -27 -14 -4 3 -7 0 -6 -8 2 -7 -3 -12 -11 -10 -11 2 -12 0 -3 -11 12
-14 7 -27 -10 -27 -5 0 -6 4 -3 10 4 6 -1 7 -11 3 -11 -4 -13 -8 -6 -11 20 -6
34 -40 20 -48 -7 -4 -8 -3 -4 4 4 6 -4 16 -16 23 -21 11 -22 11 -9 -5 13 -15
12 -20 -9 -39 -12 -12 -20 -16 -16 -10 5 9 -1 12 -18 11 -13 -1 -22 -6 -20
-10 3 -5 9 -6 14 -3 4 3 10 -2 14 -10 3 -8 0 -17 -6 -21 -6 -4 -9 -3 -5 2 3 5
-5 14 -17 20 -19 9 -23 8 -23 -5 0 -31 -3 -41 -12 -41 -5 0 -12 7 -14 15 -3
11 -4 10 -3 -2 1 -13 9 -17 26 -15 18 1 21 -1 11 -7 -7 -5 -11 -13 -7 -19 3
-5 -2 -9 -12 -8 -11 1 -16 -5 -15 -19 1 -11 0 -14 -3 -7 -3 6 -11 9 -16 6 -7
-4 -8 -2 -4 4 4 7 3 12 -2 12 -6 0 -13 -7 -16 -16 -5 -14 -9 -14 -24 -3 -9 7
-14 9 -9 4 4 -4 0 -16 -9 -26 -12 -13 -12 -19 -3 -25 8 -5 10 -3 4 6 -5 8 -4
11 3 6 12 -7 5 -36 -9 -36 -5 0 -9 -7 -9 -15 0 -8 -5 -15 -10 -15 -6 0 -14
-10 -19 -22 l-8 -22 -5 22 c-4 15 -2 20 5 16 7 -4 6 -1 -1 7 -11 12 -15 11
-23 -4 -6 -9 -15 -14 -21 -11 -6 4 -8 3 -5 -3 7 -12 -16 -36 -26 -28 -4 3 -5
2 -2 -2 10 -12 36 -12 28 0 -4 7 1 6 10 -2 9 -7 17 -16 17 -19 0 -3 -3 -2 -7
1 -3 4 -15 -1 -26 -10 -13 -11 -17 -12 -12 -4 6 11 4 13 -9 8 -9 -4 -14 -3
-11 2 3 5 1 13 -5 16 -6 4 -10 3 -9 -2 4 -22 -2 -34 -13 -27 -7 4 -10 4 -6 -1
4 -4 2 -15 -5 -23 -8 -10 -8 -13 -1 -9 7 4 14 0 17 -8 5 -11 1 -12 -16 -6 -14
6 -21 16 -19 27 2 15 1 16 -7 4 -5 -8 -8 -17 -5 -21 2 -4 0 -10 -6 -14 -6 -4
-8 -11 -4 -16 3 -6 -3 -13 -15 -16 -12 -3 -21 -10 -21 -15 0 -6 -7 -8 -15 -5
-8 4 -17 3 -19 -2 -7 -11 26 -10 41 1 7 6 14 4 19 -3 4 -7 3 -9 -4 -5 -13 8
-35 -28 -24 -39 4 -3 3 -6 -3 -5 -21 4 -30 -1 -16 -9 9 -6 10 -11 2 -15 -6 -4
-11 -2 -11 4 0 6 -6 8 -12 4 -7 -4 -2 5 11 20 25 26 25 26 3 23 -12 -2 -25 -7
-29 -12 -5 -4 -2 -5 5 -1 6 4 12 3 12 -2 0 -17 -13 -21 -34 -11 -19 9 -19 9
-3 -4 23 -19 22 -30 -3 -17 -14 7 -20 7 -20 0 0 -10 20 -14 48 -11 6 1 12 -3
12 -9 0 -6 -4 -8 -10 -5 -5 3 -10 2 -10 -4 0 -6 -7 -8 -15 -5 -11 5 -13 2 -9
-10 8 -21 -20 -47 -43 -40 -16 5 -16 4 1 -10 11 -9 15 -16 9 -16 -7 0 -15 5
-18 10 -7 12 -25 4 -25 -11 0 -6 4 -8 9 -4 5 3 12 2 15 -3 2 -4 -6 -8 -18 -8
-12 0 -23 6 -23 13 0 7 5 13 11 13 6 0 5 4 -3 9 -9 6 -10 11 -2 15 6 4 11 2
11 -5 0 -9 4 -9 15 1 8 6 20 8 26 4 8 -4 9 -3 5 5 -4 6 -4 10 1 9 7 -3 13 5
13 17 0 3 -11 -2 -24 -10 -13 -9 -28 -15 -32 -14 -24 4 -36 -2 -30 -16 3 -8 1
-15 -4 -15 -5 0 -6 -8 -3 -17 5 -14 2 -13 -17 4 -18 18 -27 20 -43 12 -13 -7
-17 -8 -13 -1 3 6 -3 14 -15 17 -15 5 -18 10 -9 15 8 5 7 9 -5 14 -9 3 -13 10
-10 16 3 5 1 10 -6 10 -6 0 -9 -8 -7 -18 3 -10 0 -19 -6 -19 -6 0 -11 10 -11
23 0 12 2 20 4 18 2 -2 10 1 18 7 10 9 13 8 13 -1 0 -7 6 -10 14 -7 8 3 17 2
20 -4 2 -5 3 -4 1 3 -1 7 -8 12 -14 10 -6 -1 -17 9 -23 23 -6 14 -18 25 -27
25 -13 0 -13 -2 -2 -9 7 -5 9 -11 5 -13 -5 -3 -3 -3 3 -2 7 2 13 -1 13 -6 0
-6 -6 -10 -14 -10 -17 0 -38 24 -29 34 10 10 14 46 5 46 -4 0 -14 -5 -22 -11
-13 -9 -12 -10 2 -5 12 3 15 1 11 -10 -7 -18 -19 -18 -26 1 -4 8 5 23 21 35
26 20 26 21 2 8 -25 -13 -65 -20 -55 -10 10 10 -17 31 -33 25 -14 -4 -14 -3
-3 5 8 6 11 17 8 25 -3 8 0 20 6 26 18 18 -33 4 -57 -16 -21 -18 -21 -18 -4 2
16 20 11 33 -17 46 -5 2 -9 7 -7 12 1 4 -2 7 -7 7 -5 0 -11 -6 -14 -12 -2 -7
-3 -5 -2 4 2 10 -1 21 -7 24 -5 3 -7 13 -4 21 4 8 -7 26 -26 44 -18 16 -28 29
-23 29 6 0 4 4 -4 9 -9 6 -24 4 -40 -6 -16 -9 -20 -10 -10 -2 16 14 23 52 7
43 -5 -3 -6 -10 -3 -15 3 -5 -2 -6 -11 -2 -12 4 -15 3 -10 -5 5 -8 1 -10 -10
-5 -11 4 -13 8 -6 11 7 2 9 9 6 14 -4 6 -2 8 4 4 6 -3 14 -1 18 5 4 7 3 9 -3
6 -12 -8 -27 20 -24 43 2 8 1 13 -1 10 -33 -44 -33 -44 -19 -35 10 6 12 4 6
-5 -6 -9 -4 -11 4 -5 10 6 11 3 2 -14 -13 -24 -23 -28 -15 -6 4 11 2 13 -9 9
-8 -3 -18 -1 -22 5 -4 7 1 8 12 4 16 -6 17 -5 3 12 -8 10 -10 16 -4 12 7 -4
14 0 17 8 4 9 1 12 -8 9 -9 -4 -19 4 -26 20 -11 24 -25 31 -55 27 -6 -1 -16 4
-22 11 -10 13 -12 18 -12 41 0 8 -4 7 -10 -3 -5 -8 -10 -11 -10 -6 0 5 7 18
16 27 15 17 15 18 -5 14 -15 -3 -21 0 -18 8 3 7 10 11 16 9 7 -1 9 2 6 8 -4 6
-10 9 -13 6 -8 -9 -31 14 -28 27 1 7 1 9 -1 5 -2 -4 -11 -4 -19 -1 -13 5 -13
7 -2 14 9 6 6 8 -9 6 -15 -1 -19 -5 -13 -13 6 -6 7 -14 3 -17 -3 -4 0 -15 8
-24 13 -16 12 -17 -4 -4 -10 8 -16 20 -13 27 3 7 1 16 -5 20 -5 3 -7 15 -4 27
5 20 5 20 -5 4 -7 -10 -9 -25 -6 -33 3 -9 1 -12 -4 -9 -6 3 -10 12 -10 20 0
18 -40 46 -53 38 -6 -3 -7 -1 -3 6 4 6 12 9 17 6 5 -4 9 1 9 10 0 9 -6 15 -12
13 -14 -2 -58 23 -58 34 0 3 7 13 15 22 8 8 11 17 7 20 -5 3 -15 -6 -22 -19
-15 -28 -27 -32 -27 -10 0 8 4 12 8 10 4 -3 10 2 13 11 3 8 2 12 -4 9 -6 -3
-15 -3 -22 1 -8 5 -6 10 7 14 18 6 17 7 -3 12 -12 4 -25 1 -29 -4 -3 -6 -2 -8
3 -5 5 3 10 -3 10 -14 0 -18 -2 -18 -12 -5 -6 9 -13 14 -16 11 -2 -3 -5 2 -5
10 0 8 4 12 8 10 4 -3 10 2 13 11 9 24 7 31 -4 14 -8 -13 -10 -12 -10 3 0 9
-4 17 -9 17 -5 0 -8 -7 -7 -16 0 -9 -5 -18 -12 -20 -7 -1 -8 0 -2 3 5 2 10 9
10 14 0 6 -6 7 -12 3 -10 -6 -10 -4 0 8 9 12 10 18 2 23 -8 5 -7 11 2 23 10
12 10 14 0 8 -7 -4 -14 -1 -18 7 -3 9 -18 13 -40 12 -38 -2 -47 4 -35 24 6 9
11 10 15 2 4 -6 13 -11 19 -11 7 0 4 5 -6 11 -9 6 -15 14 -12 19 3 4 -2 11
-11 14 -8 3 -12 11 -8 17 4 7 3 9 -4 5 -6 -3 -14 -2 -17 4 -5 8 -12 7 -23 -2
-13 -12 -14 -10 -4 9 17 30 15 41 -3 17 -8 -10 -15 -15 -15 -10 0 5 -6 4 -13
-2 -10 -8 -16 -6 -26 10 -10 16 -10 19 1 12 11 -6 11 -5 0 9 -8 9 -11 22 -7
29 4 7 -2 2 -14 -12 -20 -25 -20 -31 -21 -1187 l0 -1163 1300 0 1300 0 -2
1242 c-2 820 -6 1243 -13 1243 -5 0 -17 4 -25 10 -13 8 -13 7 -1 -8z m-20 -33
c-6 -7 -15 -11 -20 -8 -5 3 -9 0 -9 -6 0 -6 -5 -8 -10 -5 -6 4 -1 14 12 25 25
20 46 16 27 -6z m48 11 c0 -8 -3 -13 -5 -10 -3 3 -12 -1 -21 -7 -10 -8 -9 -4
3 10 23 26 23 26 23 7z m-163 -134 c-3 -3 -10 -7 -15 -7 -22 -3 -23 -5 -9 -15
13 -9 13 -10 -2 -6 -9 3 -22 -1 -28 -9 -7 -8 -17 -14 -24 -14 -6 0 6 14 27 31
22 18 34 35 30 42 -4 7 1 6 10 -2 10 -8 15 -17 11 -20z m-2285 -100 c-8 -11
-18 -21 -23 -21 -4 0 -3 7 4 15 13 15 5 39 -11 30 -5 -4 -9 -1 -9 4 0 6 5 11
11 11 5 0 7 6 3 13 -4 6 3 2 16 -9 19 -19 20 -24 9 -43z m79 -46 c11 -11 12
-45 1 -45 -5 0 -7 5 -4 11 4 6 -2 13 -13 16 -28 7 -37 33 -10 28 11 -3 23 -7
26 -10z m1869 -200 c0 -8 -4 -12 -8 -9 -4 2 -12 -4 -18 -13 -8 -14 -10 -15
-11 -3 0 13 -1 13 -10 0 -6 -9 -5 -17 3 -22 8 -5 7 -8 -4 -8 -12 0 -16 8 -15
25 1 24 26 46 26 23 0 -7 7 -5 17 5 21 21 20 20 20 2z m-1662 -65 c3 -5 1 -10
-4 -10 -6 0 -11 5 -11 10 0 6 2 10 4 10 3 0 8 -4 11 -10z m1536 -23 c-6 -8 -7
-18 -3 -22 4 -5 1 -4 -7 0 -11 6 -13 4 -8 -8 4 -10 -1 -22 -15 -31 -12 -9 -17
-19 -13 -28 7 -11 5 -11 -6 0 -12 11 -10 16 11 33 20 17 21 20 5 14 -16 -5
-14 0 9 24 30 31 48 43 27 18z m-1444 -23 c13 -12 26 -64 17 -64 -1 0 -11 18
-22 40 -21 43 -20 49 5 24z m1477 8 c3 -5 -1 -9 -9 -9 -8 0 -15 4 -15 9 0 4 4
8 9 8 6 0 12 -4 15 -8z m-117 -123 c-9 -6 -14 -15 -11 -21 4 -7 2 -8 -5 -4
-14 9 3 36 23 36 6 0 3 -5 -7 -11z m-1226 -50 c8 -15 6 -17 -6 -13 -9 4 -13 9
-11 12 3 3 -2 11 -12 19 -16 12 -16 13 1 7 10 -4 22 -15 28 -25z m1149 11 c8
-15 8 -18 -3 -14 -8 3 -14 11 -14 19 0 20 4 19 17 -5z m-95 -129 c-2 -2 -11 3
-19 12 -8 8 -12 17 -9 21 3 3 12 -2 19 -12 7 -9 11 -19 9 -21z m22 24 c0 -8
-4 -12 -9 -9 -4 3 -8 9 -8 15 0 5 4 9 8 9 5 0 9 -7 9 -15z m-883 -84 c-3 -3
-10 2 -16 12 -8 15 -12 16 -26 5 -15 -11 -15 -11 -6 2 9 11 9 18 -1 27 -7 6
-16 9 -19 5 -4 -3 -4 1 -1 10 5 13 13 9 41 -20 19 -19 32 -38 28 -41z m-9 -20
c-6 -5 -25 10 -25 20 0 5 6 4 14 -3 8 -7 12 -15 11 -17z m762 13 c-3 -4 -2
-16 4 -28 9 -19 9 -19 -4 -4 -8 10 -18 14 -23 10 -4 -4 -2 1 5 11 7 9 16 17
19 17 3 0 2 -3 -1 -6z m-754 -39 c-3 -9 -8 -14 -10 -11 -3 3 -2 9 2 15 9 16
15 13 8 -4z m687 -43 c0 -13 -12 -22 -22 -16 -10 6 -1 24 13 24 5 0 9 -4 9 -8z
m-574 -17 c-1 -8 -7 -20 -13 -26 -13 -13 -13 7 0 29 11 16 16 15 13 -3z m585
-18 c-10 -9 -11 -8 -5 6 3 10 9 15 12 12 3 -3 0 -11 -7 -18z m-63 -18 c-7 -5
-9 -9 -5 -9 5 0 5 -6 0 -12 -4 -7 -8 -16 -8 -20 0 -3 -4 -10 -9 -15 -5 -4 -6
-3 -2 4 3 6 2 14 -4 18 -6 4 -7 12 -3 18 4 7 8 15 9 20 1 4 2 9 3 12 0 2 8 2
17 -2 13 -5 13 -7 2 -14z m32 -9 c0 -5 -5 -10 -11 -10 -5 0 -7 5 -4 10 3 6 8
10 11 10 2 0 4 -4 4 -10z m-530 -16 c0 -8 -19 -13 -24 -6 -3 5 1 9 9 9 8 0 15
-2 15 -3z m390 -144 c0 -5 -10 -15 -22 -21 l-23 -12 20 21 c23 24 25 25 25 12z
m-240 -52 c0 -6 -6 -5 -15 2 -8 7 -15 14 -15 16 0 2 7 1 15 -2 8 -4 15 -11 15
-16z m50 -2 c0 -3 -4 -8 -10 -11 -5 -3 -10 -1 -10 4 0 6 5 11 10 11 6 0 10 -2
10 -4z m23 -19 c3 -8 -1 -14 -8 -14 -7 0 -11 6 -8 14 3 7 6 13 8 13 2 0 5 -6
8 -13z"/>
<path d="M2425 2400 c-4 -6 1 -7 11 -3 12 4 15 3 10 -5 -5 -8 -2 -10 9 -5 13
5 14 7 3 14 -17 11 -26 11 -33 -1z"/>
<path d="M66 2330 c-18 -18 -18 -19 1 -17 11 0 20 9 20 19 2 22 3 22 -21 -2z"/>
<path d="M256 2158 c3 -5 10 -6 15 -3 13 9 11 12 -6 12 -8 0 -12 -4 -9 -9z"/>
<path d="M2079 2048 c11 -15 41 -15 41 -1 0 3 -6 3 -14 0 -7 -3 -20 0 -27 6
-11 10 -11 9 0 -5z"/>
<path d="M356 2032 c-3 -5 2 -16 12 -25 16 -14 18 -14 29 9 9 20 9 23 -1 15
-9 -7 -16 -7 -23 0 -7 7 -13 7 -17 1z"/>
<path d="M430 1970 c-13 -8 -13 -11 3 -27 10 -11 17 -13 17 -5 0 7 -5 12 -11
12 -8 0 -8 5 1 15 14 17 11 19 -10 5z"/>
<path d="M1915 1910 c3 -5 8 -10 11 -10 2 0 4 5 4 10 0 6 -5 10 -11 10 -5 0
-7 -4 -4 -10z"/>
<path d="M1839 1797 c6 -8 7 -18 3 -22 -4 -5 -1 -5 6 -1 10 6 10 11 1 22 -6 8
-14 14 -16 14 -3 0 0 -6 6 -13z"/>
<path d="M585 1781 c1 -9 11 -16 23 -17 25 -1 19 22 -8 29 -12 3 -17 0 -15
-12z"/>
<path d="M636 1777 c3 -10 9 -15 12 -12 3 3 0 11 -7 18 -10 9 -11 8 -5 -6z"/>
<path d="M736 1687 c3 -10 9 -15 12 -12 3 3 0 11 -7 18 -10 9 -11 8 -5 -6z"/>
<path d="M1726 1681 c-4 -5 -2 -12 3 -15 5 -4 12 -2 15 3 4 5 2 12 -3 15 -5 4
-12 2 -15 -3z"/>
<path d="M1632 1574 c-7 -8 -12 -20 -10 -26 2 -6 12 1 21 16 19 28 11 35 -11
10z"/>
<path d="M865 1521 c-3 -6 4 -15 15 -21 11 -6 17 -16 14 -22 -4 -6 -3 -8 3 -5
6 4 16 0 23 -8 7 -8 16 -12 22 -9 5 3 4 12 -3 20 -6 7 -16 11 -22 7 -6 -4 -8
0 -4 11 4 9 3 15 -2 11 -5 -3 -17 -2 -26 1 -13 5 -14 8 -3 15 9 6 9 9 1 9 -6
0 -14 -4 -18 -9z"/>
<path d="M985 1409 c2 -23 30 -55 38 -42 3 5 2 15 -4 23 -6 11 -9 12 -9 2 0
-7 -4 -11 -10 -7 -5 3 -7 12 -4 19 3 8 1 16 -4 20 -5 3 -8 -4 -7 -15z"/>
<path d="M1123 1229 c9 -6 14 -15 11 -21 -4 -7 -2 -8 4 -4 7 4 12 2 12 -3 0
-6 4 -11 8 -11 5 0 9 7 9 15 0 8 -2 13 -5 10 -2 -2 -11 2 -19 10 -8 8 -20 15
-26 15 -7 0 -4 -5 6 -11z"/>
<path d="M1183 1206 c1 -11 9 -21 17 -23 10 -3 11 -2 4 4 -6 4 -14 15 -17 23
-5 11 -6 9 -4 -4z"/>
</g>
</svg>
